{"asset":{"version":"2.0","generator":"THREE.GLTFExporter r164"},"scenes":[{"nodes":[0]}],"scene":0,"nodes":[{"mesh":0}],"bufferViews":[{"buffer":0,"byteOffset":0,"byteLength":49968,"target":34962,"byteStride":12},{"buffer":0,"byteOffset":49968,"byteLength":33312,"target":34962,"byteStride":8},{"buffer":0,"byteOffset":83280,"byteLength":49968,"target":34962,"byteStride":12}],"buffers":[{"byteLength":133248,"uri":"data:application/octet-stream;base64,"}],"accessors":[{"bufferView":0,"componentType":5126,"count":4164,"max":[0.6194999814033508,1.0130000114440918,0.10000000149011612],"min":[-0.6194999814033508,-0.02500000037252903,0],"type":"VEC3"},{"bufferView":1,"componentType":5126,"count":4164,"max":[1.2389999628067017,1.0130000114440918],"min":[0,-0.02500000037252903],"type":"VEC2"},{"bufferView":2,"componentType":5126,"count":4164,"max":[1,1,1],"min":[-1,-1,-1],"type":"VEC3"}],"materials":[{"pbrMetallicRoughness":{"baseColorFactor":[0.0060488330203860696,0.0343398068028541,0.09305896283800832,1],"metallicFactor":0,"roughnessFactor":0.9},"extensions":{"KHR_materials_unlit":{}}}],"meshes":[{"primitives":[{"mode":4,"attributes":{"POSITION":0,"TEXCOORD_0":1,"NORMAL":2},"material":0}]}],"extensionsUsed":["KHR_materials_unlit"]}