{"asset":{"version":"2.0","generator":"THREE.GLTFExporter r164"},"scenes":[{"nodes":[0]}],"scene":0,"nodes":[{"mesh":0}],"bufferViews":[{"buffer":0,"byteOffset":0,"byteLength":82800,"target":34962,"byteStride":12},{"buffer":0,"byteOffset":82800,"byteLength":55200,"target":34962,"byteStride":8},{"buffer":0,"byteOffset":138000,"byteLength":82800,"target":34962,"byteStride":12}],"buffers":[{"byteLength":220800,"uri":"data:application/octet-stream;base64,"}],"accessors":[{"bufferView":0,"componentType":5126,"count":6900,"max":[1.2575000524520874,1.0429999828338623,0.10000000149011612],"min":[-1.2575000524520874,-0.02800000086426735,0],"type":"VEC3"},{"bufferView":1,"componentType":5126,"count":6900,"max":[2.515000104904175,1.0429999828338623],"min":[0,-0.02800000086426735],"type":"VEC2"},{"bufferView":2,"componentType":5126,"count":6900,"max":[1,1,1],"min":[-1,-1,-1],"type":"VEC3"}],"materials":[{"pbrMetallicRoughness":{"baseColorFactor":[0.0060488330203860696,0.0343398068028541,0.09305896283800832,1],"metallicFactor":0,"roughnessFactor":0.9},"extensions":{"KHR_materials_unlit":{}}}],"meshes":[{"primitives":[{"mode":4,"attributes":{"POSITION":0,"TEXCOORD_0":1,"NORMAL":2},"material":0}]}],"extensionsUsed":["KHR_materials_unlit"]}