{"asset":{"version":"2.0","generator":"THREE.GLTFExporter r164"},"scenes":[{"nodes":[0]}],"scene":0,"nodes":[{"mesh":0}],"bufferViews":[{"buffer":0,"byteOffset":0,"byteLength":85536,"target":34962,"byteStride":12},{"buffer":0,"byteOffset":85536,"byteLength":57024,"target":34962,"byteStride":8},{"buffer":0,"byteOffset":142560,"byteLength":85536,"target":34962,"byteStride":12}],"buffers":[{"byteLength":228096,"uri":"data:application/octet-stream;base64,"}],"accessors":[{"bufferView":0,"componentType":5126,"count":7128,"max":[1.0089999437332153,0.9440000057220459,0.10000000149011612],"min":[-1.0089999437332153,-0.3059999942779541,0],"type":"VEC3"},{"bufferView":1,"componentType":5126,"count":7128,"max":[2.0179998874664307,1],"min":[-0.21825000643730164,-0.3059999942779541],"type":"VEC2"},{"bufferView":2,"componentType":5126,"count":7128,"max":[1,1,1],"min":[-1,-1,-1],"type":"VEC3"}],"materials":[{"pbrMetallicRoughness":{"baseColorFactor":[0.0060488330203860696,0.0343398068028541,0.09305896283800832,1],"metallicFactor":0,"roughnessFactor":0.9},"extensions":{"KHR_materials_unlit":{}}}],"meshes":[{"primitives":[{"mode":4,"attributes":{"POSITION":0,"TEXCOORD_0":1,"NORMAL":2},"material":0}]}],"extensionsUsed":["KHR_materials_unlit"]}