{"asset":{"version":"2.0","generator":"THREE.GLTFExporter r164"},"scenes":[{"nodes":[0]}],"scene":0,"nodes":[{"mesh":0}],"bufferViews":[{"buffer":0,"byteOffset":0,"byteLength":39024,"target":34962,"byteStride":12},{"buffer":0,"byteOffset":39024,"byteLength":26016,"target":34962,"byteStride":8},{"buffer":0,"byteOffset":65040,"byteLength":39024,"target":34962,"byteStride":12}],"buffers":[{"byteLength":104064,"uri":"data:application/octet-stream;base64,"}],"accessors":[{"bufferView":0,"componentType":5126,"count":3252,"max":[0.4465000033378601,1.0130000114440918,0.10000000149011612],"min":[-0.41850000619888306,-0.023000000044703484,0],"type":"VEC3"},{"bufferView":1,"componentType":5126,"count":3252,"max":[1.0130000114440918,1.0130000114440918],"min":[0,-0.023000000044703484],"type":"VEC2"},{"bufferView":2,"componentType":5126,"count":3252,"max":[1,1,1],"min":[-1,-1,-1],"type":"VEC3"}],"materials":[{"pbrMetallicRoughness":{"baseColorFactor":[0.0060488330203860696,0.0343398068028541,0.09305896283800832,1],"metallicFactor":0,"roughnessFactor":0.9},"extensions":{"KHR_materials_unlit":{}}}],"meshes":[{"primitives":[{"mode":4,"attributes":{"POSITION":0,"TEXCOORD_0":1,"NORMAL":2},"material":0}]}],"extensionsUsed":["KHR_materials_unlit"]}