{"asset":{"version":"2.0","generator":"THREE.GLTFExporter r164"},"scenes":[{"nodes":[0]}],"scene":0,"nodes":[{"mesh":0}],"bufferViews":[{"buffer":0,"byteOffset":0,"byteLength":110160,"target":34962,"byteStride":12},{"buffer":0,"byteOffset":110160,"byteLength":73440,"target":34962,"byteStride":8},{"buffer":0,"byteOffset":183600,"byteLength":110160,"target":34962,"byteStride":12}],"buffers":[{"byteLength":293760,"uri":"data:application/octet-stream;base64,"}],"accessors":[{"bufferView":0,"componentType":5126,"count":9180,"max":[2.066499948501587,1.0130000114440918,0.10000000149011612],"min":[-2.066499948501587,-0.27900001406669617,0],"type":"VEC3"},{"bufferView":1,"componentType":5126,"count":9180,"max":[4.132999897003174,1.0130000114440918],"min":[-0.26600000262260437,-0.27900001406669617],"type":"VEC2"},{"bufferView":2,"componentType":5126,"count":9180,"max":[1,1,1],"min":[-1,-1,-1],"type":"VEC3"}],"materials":[{"pbrMetallicRoughness":{"baseColorFactor":[0.0060488330203860696,0.0343398068028541,0.09305896283800832,1],"metallicFactor":0,"roughnessFactor":0.9},"extensions":{"KHR_materials_unlit":{}}}],"meshes":[{"primitives":[{"mode":4,"attributes":{"POSITION":0,"TEXCOORD_0":1,"NORMAL":2},"material":0}]}],"extensionsUsed":["KHR_materials_unlit"]}